<svg data-name="Capa 1" xmlns="http://www.w3.org/2000/svg" viewBox="0 0 20 20"><path d="M14.6 1H1.5a.47.47 0 0 0-.5.5v13.1a.46.46 0 0 0 .5.4h13a.5.5 0 0 0 .5-.5v-13a.46.46 0 0 0-.4-.5zM14 14H2V2h12zM18.5 14H18V2h.5a.47.47 0 0 0 .5-.5.47.47 0 0 0-.5-.5h-2a.47.47 0 0 0-.5.5.47.47 0 0 0 .5.5h.5v12h-.5a.5.5 0 0 0 0 1h2a.5.5 0 0 0 0-1z"/><path fill="none" d="M0 0h20v20H0z"/><path d="M14.5 16a.47.47 0 0 0-.5.5v.5H2v-.5a.47.47 0 0 0-.5-.5.47.47 0 0 0-.5.5v2a.47.47 0 0 0 .5.5.47.47 0 0 0 .5-.5V18h12v.5a.5.5 0 0 0 1 0v-2a.47.47 0 0 0-.5-.5zM12.5 7h-.79l1.14-1.15a.36.36 0 0 0 .15-.16.41.41 0 0 0 0-.19 1.5 1.5 0 0 0-3 0 .5.5 0 0 0 1 0 .5.5 0 0 1 .5-.5.52.52 0 0 1 .47.33l-1.82 1.82a.36.36 0 0 0-.11.16.47.47 0 0 0 0 .38.53.53 0 0 0 .27.27.41.41 0 0 0 .19 0h2a.5.5 0 0 0 0-1z"/><path d="M8 6a2 2 0 0 0-1.5.69A2 2 0 0 0 5 6a2 2 0 0 0-1 .3.5.5 0 0 0-1 .2v4a.5.5 0 0 0 1 0V8a1 1 0 0 1 2 0v2.5a.5.5 0 0 0 1 0V8a1 1 0 0 1 2 0v2.5a.5.5 0 0 0 1 0V8a2 2 0 0 0-2-2z"/></svg>