<?xml version="1.0" encoding="utf-8"?>
<!-- Uploaded to: SVG Repo, www.svgrepo.com, Generator: SVG Repo Mixer Tools -->
<svg width="800px" height="800px" viewBox="0 0 1024 1024" class="icon"  version="1.1" xmlns="http://www.w3.org/2000/svg"><path d="M896 896H128V192l384-149.333333 384 149.333333z" fill="#C5CAE9" /><path d="M128 896h768v42.666667H128z" fill="#9FA8DA" /><path d="M426.666667 746.666667h170.666666v192h-170.666666z" fill="#BF360C" /><path d="M661.333333 576h128v106.666667h-128zM448 576h128v106.666667h-128zM234.666667 576h128v106.666667h-128zM661.333333 746.666667h128v106.666666h-128zM234.666667 746.666667h128v106.666666h-128zM661.333333 405.333333h128v106.666667h-128zM448 405.333333h128v106.666667h-128zM234.666667 405.333333h128v106.666667h-128zM661.333333 234.666667h128v106.666666h-128zM448 234.666667h128v106.666666h-128zM234.666667 234.666667h128v106.666666h-128z" fill="#1565C0" /></svg>